<svg width="180" height="72" viewBox="0 0 180 72" fill="none" xmlns="http://www.w3.org/2000/svg">
<rect width="180" height="72" rx="20" fill="#FFBA33"/>
<path d="M19.9 43C19.7533 43 19.6333 42.9533 19.54 42.86C19.4467 42.7667 19.4 42.6467 19.4 42.5V29.5C19.4 29.3533 19.4467 29.2333 19.54 29.14C19.6467 29.0467 19.7667 29 19.9 29H22.48C22.6267 29 22.7467 29.0467 22.84 29.14C22.9467 29.2333 23 29.3533 23 29.5V34.32H27.92V29.5C27.92 29.3533 27.9667 29.2333 28.06 29.14C28.1533 29.0467 28.2733 29 28.42 29H31C31.1467 29 31.2667 29.0467 31.36 29.14C31.4533 29.2333 31.5 29.3533 31.5 29.5V42.5C31.5 42.6467 31.4533 42.7667 31.36 42.86C31.2667 42.9533 31.1467 43 31 43H28.42C28.2733 43 28.1533 42.9533 28.06 42.86C27.9667 42.7667 27.92 42.6467 27.92 42.5V37.52H23V42.5C23 42.6467 22.9467 42.7667 22.84 42.86C22.7467 42.9533 22.6267 43 22.48 43H19.9ZM39.0023 43.2C37.349 43.2 36.0757 42.8067 35.1823 42.02C34.289 41.2333 33.8023 40.1267 33.7223 38.7C33.709 38.5267 33.7023 38.2267 33.7023 37.8C33.7023 37.3733 33.709 37.0733 33.7223 36.9C33.8023 35.4867 34.3023 34.3867 35.2223 33.6C36.1423 32.8 37.4023 32.4 39.0023 32.4C40.6157 32.4 41.8823 32.8 42.8023 33.6C43.7223 34.3867 44.2223 35.4867 44.3023 36.9C44.3157 37.0733 44.3223 37.3733 44.3223 37.8C44.3223 38.2267 44.3157 38.5267 44.3023 38.7C44.2223 40.1267 43.7357 41.2333 42.8423 42.02C41.949 42.8067 40.669 43.2 39.0023 43.2ZM39.0023 40.76C39.589 40.76 40.0223 40.5867 40.3023 40.24C40.5823 39.88 40.7423 39.3333 40.7823 38.6C40.7957 38.4667 40.8023 38.2 40.8023 37.8C40.8023 37.4 40.7957 37.1333 40.7823 37C40.7423 36.28 40.5757 35.74 40.2823 35.38C40.0023 35.02 39.5757 34.84 39.0023 34.84C37.8957 34.84 37.309 35.56 37.2423 37L37.2223 37.8L37.2423 38.6C37.269 39.3333 37.4223 39.88 37.7023 40.24C37.9957 40.5867 38.429 40.76 39.0023 40.76ZM46.8089 43C46.6622 43 46.5422 42.9533 46.4489 42.86C46.3556 42.7667 46.3089 42.6467 46.3089 42.5V33.1C46.3089 32.9533 46.3556 32.8333 46.4489 32.74C46.5422 32.6467 46.6622 32.6 46.8089 32.6H48.9889C49.1356 32.6 49.2556 32.6467 49.3489 32.74C49.4422 32.8333 49.4889 32.9533 49.4889 33.1V33.78C49.7956 33.38 50.2022 33.0533 50.7089 32.8C51.2289 32.5333 51.8089 32.4 52.4489 32.4C53.9156 32.4 54.9289 32.9733 55.4889 34.12C55.8089 33.6133 56.2556 33.2 56.8289 32.88C57.4022 32.56 58.0156 32.4 58.6689 32.4C59.7622 32.4 60.6489 32.7733 61.3289 33.52C62.0222 34.2533 62.3689 35.3533 62.3689 36.82V42.5C62.3689 42.6333 62.3222 42.7533 62.2289 42.86C62.1356 42.9533 62.0156 43 61.8689 43H59.5489C59.4022 43 59.2756 42.9533 59.1689 42.86C59.0756 42.7667 59.0289 42.6467 59.0289 42.5V36.96C59.0289 36.2933 58.8889 35.8133 58.6089 35.52C58.3422 35.2267 57.9756 35.08 57.5089 35.08C57.0822 35.08 56.7289 35.2333 56.4489 35.54C56.1689 35.8333 56.0289 36.3067 56.0289 36.96V42.5C56.0289 42.6333 55.9822 42.7533 55.8889 42.86C55.7956 42.9533 55.6756 43 55.5289 43H53.2089C53.0622 43 52.9422 42.9533 52.8489 42.86C52.7556 42.7667 52.7089 42.6467 52.7089 42.5V36.96C52.7089 36.3067 52.5622 35.8333 52.2689 35.54C51.9889 35.2333 51.6289 35.08 51.1889 35.08C50.7622 35.08 50.4022 35.2333 50.1089 35.54C49.8289 35.8333 49.6889 36.3 49.6889 36.94V42.5C49.6889 42.6333 49.6422 42.7533 49.5489 42.86C49.4556 42.9533 49.3356 43 49.1889 43H46.8089ZM69.4292 43.2C67.8292 43.2 66.5692 42.7667 65.6492 41.9C64.7292 41.0333 64.2492 39.7733 64.2092 38.12V37.42C64.2626 35.8467 64.7492 34.62 65.6692 33.74C66.6026 32.8467 67.8492 32.4 69.4092 32.4C70.5426 32.4 71.4959 32.6333 72.2692 33.1C73.0559 33.5533 73.6426 34.18 74.0292 34.98C74.4292 35.78 74.6292 36.7 74.6292 37.74V38.22C74.6292 38.3533 74.5826 38.4733 74.4892 38.58C74.3959 38.6733 74.2759 38.72 74.1292 38.72H67.7292V38.86C67.7559 39.4867 67.9092 39.9933 68.1892 40.38C68.4692 40.7667 68.8759 40.96 69.4092 40.96C69.7426 40.96 70.0159 40.8933 70.2292 40.76C70.4426 40.6133 70.6359 40.44 70.8092 40.24C70.9292 40.0933 71.0226 40.0067 71.0892 39.98C71.1692 39.94 71.2892 39.92 71.4492 39.92H73.9292C74.0492 39.92 74.1492 39.96 74.2292 40.04C74.3226 40.1067 74.3692 40.2 74.3692 40.32C74.3692 40.6667 74.1692 41.0667 73.7692 41.52C73.3826 41.9733 72.8159 42.3667 72.0692 42.7C71.3226 43.0333 70.4426 43.2 69.4292 43.2ZM71.1092 36.74V36.7C71.1092 36.0467 70.9559 35.5333 70.6492 35.16C70.3559 34.7733 69.9426 34.58 69.4092 34.58C68.8892 34.58 68.4759 34.7733 68.1692 35.16C67.8759 35.5333 67.7292 36.0467 67.7292 36.7V36.74H71.1092ZM81.482 43C81.3487 43 81.2287 42.9533 81.122 42.86C81.0287 42.7533 80.982 42.6333 80.982 42.5V29.5C80.982 29.3533 81.0287 29.2333 81.122 29.14C81.2287 29.0467 81.3487 29 81.482 29H86.682C88.642 29 90.162 29.4667 91.242 30.4C92.322 31.3333 92.8887 32.6867 92.942 34.46C92.9554 34.8467 92.962 35.36 92.962 36C92.962 36.64 92.9554 37.1467 92.942 37.52C92.8754 39.3733 92.322 40.7533 91.282 41.66C90.2554 42.5533 88.7554 43 86.782 43H81.482ZM86.682 40.12C87.562 40.12 88.2087 39.9133 88.622 39.5C89.0354 39.0733 89.2554 38.4 89.282 37.48C89.3087 37.0933 89.322 36.5933 89.322 35.98C89.322 35.3667 89.3087 34.8733 89.282 34.5C89.2554 33.6067 89.0154 32.9467 88.562 32.52C88.122 32.0933 87.462 31.88 86.582 31.88H84.582V40.12H86.682ZM99.8784 43.2C98.2784 43.2 97.0184 42.7667 96.0984 41.9C95.1784 41.0333 94.6984 39.7733 94.6584 38.12V37.42C94.7118 35.8467 95.1984 34.62 96.1184 33.74C97.0518 32.8467 98.2984 32.4 99.8584 32.4C100.992 32.4 101.945 32.6333 102.718 33.1C103.505 33.5533 104.092 34.18 104.478 34.98C104.878 35.78 105.078 36.7 105.078 37.74V38.22C105.078 38.3533 105.032 38.4733 104.938 38.58C104.845 38.6733 104.725 38.72 104.578 38.72H98.1784V38.86C98.2051 39.4867 98.3584 39.9933 98.6384 40.38C98.9184 40.7667 99.3251 40.96 99.8584 40.96C100.192 40.96 100.465 40.8933 100.678 40.76C100.892 40.6133 101.085 40.44 101.258 40.24C101.378 40.0933 101.472 40.0067 101.538 39.98C101.618 39.94 101.738 39.92 101.898 39.92H104.378C104.498 39.92 104.598 39.96 104.678 40.04C104.772 40.1067 104.818 40.2 104.818 40.32C104.818 40.6667 104.618 41.0667 104.218 41.52C103.832 41.9733 103.265 42.3667 102.518 42.7C101.772 43.0333 100.892 43.2 99.8784 43.2ZM101.558 36.74V36.7C101.558 36.0467 101.405 35.5333 101.098 35.16C100.805 34.7733 100.392 34.58 99.8584 34.58C99.3384 34.58 98.9251 34.7733 98.6184 35.16C98.3251 35.5333 98.1784 36.0467 98.1784 36.7V36.74H101.558ZM107.453 43C107.32 43 107.2 42.9533 107.093 42.86C107 42.7533 106.953 42.6333 106.953 42.5V29.3C106.953 29.1533 107 29.0333 107.093 28.94C107.2 28.8467 107.32 28.8 107.453 28.8H109.813C109.96 28.8 110.08 28.8467 110.173 28.94C110.267 29.0333 110.313 29.1533 110.313 29.3V42.5C110.313 42.6467 110.267 42.7667 110.173 42.86C110.08 42.9533 109.96 43 109.813 43H107.453ZM113.156 31.1C113.009 31.1 112.889 31.0533 112.796 30.96C112.703 30.8667 112.656 30.7467 112.656 30.6V28.8C112.656 28.6533 112.703 28.5333 112.796 28.44C112.889 28.3467 113.009 28.3 113.156 28.3H115.556C115.703 28.3 115.823 28.3467 115.916 28.44C116.009 28.5333 116.056 28.6533 116.056 28.8V30.6C116.056 30.7467 116.009 30.8667 115.916 30.96C115.823 31.0533 115.703 31.1 115.556 31.1H113.156ZM113.176 43C113.029 43 112.909 42.9533 112.816 42.86C112.723 42.7667 112.676 42.6467 112.676 42.5V33.1C112.676 32.9533 112.723 32.8333 112.816 32.74C112.909 32.6467 113.029 32.6 113.176 32.6H115.536C115.683 32.6 115.803 32.6467 115.896 32.74C115.989 32.8333 116.036 32.9533 116.036 33.1V42.5C116.036 42.6333 115.989 42.7533 115.896 42.86C115.803 42.9533 115.683 43 115.536 43H113.176ZM122.099 43C121.912 43 121.765 42.96 121.659 42.88C121.565 42.7867 121.485 42.66 121.419 42.5L117.639 33.22L117.599 33.04C117.599 32.92 117.639 32.82 117.719 32.74C117.812 32.6467 117.925 32.6 118.059 32.6H120.319C120.612 32.6 120.805 32.74 120.899 33.02L123.159 39.16L125.439 33.02C125.532 32.74 125.725 32.6 126.019 32.6H128.279C128.399 32.6 128.505 32.6467 128.599 32.74C128.692 32.82 128.739 32.92 128.739 33.04L128.699 33.22L124.919 42.5C124.852 42.66 124.765 42.7867 124.659 42.88C124.552 42.96 124.405 43 124.219 43H122.099ZM134.703 43.2C133.103 43.2 131.843 42.7667 130.923 41.9C130.003 41.0333 129.523 39.7733 129.483 38.12V37.42C129.536 35.8467 130.023 34.62 130.943 33.74C131.876 32.8467 133.123 32.4 134.683 32.4C135.816 32.4 136.769 32.6333 137.543 33.1C138.329 33.5533 138.916 34.18 139.303 34.98C139.703 35.78 139.903 36.7 139.903 37.74V38.22C139.903 38.3533 139.856 38.4733 139.763 38.58C139.669 38.6733 139.549 38.72 139.403 38.72H133.003V38.86C133.029 39.4867 133.183 39.9933 133.463 40.38C133.743 40.7667 134.149 40.96 134.683 40.96C135.016 40.96 135.289 40.8933 135.503 40.76C135.716 40.6133 135.909 40.44 136.083 40.24C136.203 40.0933 136.296 40.0067 136.363 39.98C136.443 39.94 136.563 39.92 136.723 39.92H139.203C139.323 39.92 139.423 39.96 139.503 40.04C139.596 40.1067 139.643 40.2 139.643 40.32C139.643 40.6667 139.443 41.0667 139.043 41.52C138.656 41.9733 138.089 42.3667 137.343 42.7C136.596 43.0333 135.716 43.2 134.703 43.2ZM136.383 36.74V36.7C136.383 36.0467 136.229 35.5333 135.923 35.16C135.629 34.7733 135.216 34.58 134.683 34.58C134.163 34.58 133.749 34.7733 133.443 35.16C133.149 35.5333 133.003 36.0467 133.003 36.7V36.74H136.383ZM142.278 43C142.131 43 142.011 42.9533 141.918 42.86C141.824 42.7667 141.778 42.6467 141.778 42.5V33.1C141.778 32.9533 141.824 32.8333 141.918 32.74C142.011 32.6467 142.131 32.6 142.278 32.6H144.578C144.724 32.6 144.844 32.6533 144.938 32.76C145.044 32.8533 145.098 32.9667 145.098 33.1V33.9C145.831 33.0333 146.818 32.6 148.058 32.6H148.938C149.084 32.6 149.204 32.6467 149.298 32.74C149.391 32.8333 149.438 32.9533 149.438 33.1V35.16C149.438 35.2933 149.391 35.4133 149.298 35.52C149.204 35.6133 149.084 35.66 148.938 35.66H146.998C146.451 35.66 146.024 35.8133 145.718 36.12C145.424 36.4133 145.278 36.8333 145.278 37.38V42.5C145.278 42.6467 145.224 42.7667 145.118 42.86C145.024 42.9533 144.904 43 144.758 43H142.278ZM152.8 46.8C152.68 46.8 152.58 46.76 152.5 46.68C152.42 46.6 152.38 46.5 152.38 46.38C152.38 46.2867 152.4 46.2 152.44 46.12L154 42.36L150.16 33.28C150.12 33.1733 150.1 33.0933 150.1 33.04C150.126 32.92 150.18 32.82 150.26 32.74C150.34 32.6467 150.44 32.6 150.56 32.6H152.84C153.12 32.6 153.313 32.74 153.42 33.02L155.7 38.84L158.04 33.02C158.173 32.74 158.373 32.6 158.64 32.6H160.88C161 32.6 161.1 32.6467 161.18 32.74C161.273 32.82 161.32 32.9133 161.32 33.02C161.32 33.0733 161.3 33.16 161.26 33.28L155.6 46.38C155.493 46.66 155.293 46.8 155 46.8H152.8Z" fill="#6A4029"/>
</svg>
