<svg width="180" height="72" viewBox="0 0 180 72" fill="none" xmlns="http://www.w3.org/2000/svg">
<rect width="180" height="72" rx="20" fill="#FFBA33"/>
<path d="M57.9 43C57.7667 43 57.6467 42.9533 57.54 42.86C57.4467 42.7533 57.4 42.6333 57.4 42.5V29.5C57.4 29.3533 57.4467 29.2333 57.54 29.14C57.6467 29.0467 57.7667 29 57.9 29H63.1C65.06 29 66.58 29.4667 67.66 30.4C68.74 31.3333 69.3067 32.6867 69.36 34.46C69.3733 34.8467 69.38 35.36 69.38 36C69.38 36.64 69.3733 37.1467 69.36 37.52C69.2933 39.3733 68.74 40.7533 67.7 41.66C66.6733 42.5533 65.1733 43 63.2 43H57.9ZM63.1 40.12C63.98 40.12 64.6267 39.9133 65.04 39.5C65.4533 39.0733 65.6733 38.4 65.7 37.48C65.7267 37.0933 65.74 36.5933 65.74 35.98C65.74 35.3667 65.7267 34.8733 65.7 34.5C65.6733 33.6067 65.4333 32.9467 64.98 32.52C64.54 32.0933 63.88 31.88 63 31.88H61V40.12H63.1ZM71.9764 31.1C71.8297 31.1 71.7097 31.0533 71.6164 30.96C71.5231 30.8667 71.4764 30.7467 71.4764 30.6V28.8C71.4764 28.6533 71.5231 28.5333 71.6164 28.44C71.7097 28.3467 71.8297 28.3 71.9764 28.3H74.3764C74.5231 28.3 74.6431 28.3467 74.7364 28.44C74.8297 28.5333 74.8764 28.6533 74.8764 28.8V30.6C74.8764 30.7467 74.8297 30.8667 74.7364 30.96C74.6431 31.0533 74.5231 31.1 74.3764 31.1H71.9764ZM71.9964 43C71.8497 43 71.7297 42.9533 71.6364 42.86C71.5431 42.7667 71.4964 42.6467 71.4964 42.5V33.1C71.4964 32.9533 71.5431 32.8333 71.6364 32.74C71.7297 32.6467 71.8497 32.6 71.9964 32.6H74.3564C74.5031 32.6 74.6231 32.6467 74.7164 32.74C74.8097 32.8333 74.8564 32.9533 74.8564 33.1V42.5C74.8564 42.6333 74.8097 42.7533 74.7164 42.86C74.6231 42.9533 74.5031 43 74.3564 43H71.9964ZM77.7191 43C77.5724 43 77.4524 42.9533 77.3591 42.86C77.2657 42.7667 77.2191 42.6467 77.2191 42.5V33.1C77.2191 32.9533 77.2657 32.8333 77.3591 32.74C77.4524 32.6467 77.5724 32.6 77.7191 32.6H80.0191C80.1657 32.6 80.2857 32.6467 80.3791 32.74C80.4857 32.8333 80.5391 32.9533 80.5391 33.1V33.86C80.8991 33.42 81.3591 33.0667 81.9191 32.8C82.4924 32.5333 83.1391 32.4 83.8591 32.4C85.0324 32.4 85.9857 32.8 86.7191 33.6C87.4524 34.3867 87.8191 35.4933 87.8191 36.92V42.5C87.8191 42.6333 87.7724 42.7533 87.6791 42.86C87.5857 42.9533 87.4657 43 87.3191 43H84.7991C84.6657 43 84.5457 42.9533 84.4391 42.86C84.3457 42.7533 84.2991 42.6333 84.2991 42.5V37.04C84.2991 36.4133 84.1457 35.9333 83.8391 35.6C83.5324 35.2533 83.0924 35.08 82.5191 35.08C81.9591 35.08 81.5191 35.2533 81.1991 35.6C80.8791 35.9333 80.7191 36.4133 80.7191 37.04V42.5C80.7191 42.6333 80.6724 42.7533 80.5791 42.86C80.4857 42.9533 80.3657 43 80.2191 43H77.7191ZM94.8706 43.2C93.2706 43.2 92.0106 42.7667 91.0906 41.9C90.1706 41.0333 89.6906 39.7733 89.6506 38.12V37.42C89.704 35.8467 90.1906 34.62 91.1106 33.74C92.044 32.8467 93.2906 32.4 94.8506 32.4C95.984 32.4 96.9373 32.6333 97.7106 33.1C98.4973 33.5533 99.084 34.18 99.4706 34.98C99.8706 35.78 100.071 36.7 100.071 37.74V38.22C100.071 38.3533 100.024 38.4733 99.9306 38.58C99.8373 38.6733 99.7173 38.72 99.5706 38.72H93.1706V38.86C93.1973 39.4867 93.3506 39.9933 93.6306 40.38C93.9106 40.7667 94.3173 40.96 94.8506 40.96C95.184 40.96 95.4573 40.8933 95.6706 40.76C95.884 40.6133 96.0773 40.44 96.2506 40.24C96.3706 40.0933 96.464 40.0067 96.5306 39.98C96.6106 39.94 96.7306 39.92 96.8906 39.92H99.3706C99.4906 39.92 99.5906 39.96 99.6706 40.04C99.764 40.1067 99.8106 40.2 99.8106 40.32C99.8106 40.6667 99.6106 41.0667 99.2106 41.52C98.824 41.9733 98.2573 42.3667 97.5106 42.7C96.764 43.0333 95.884 43.2 94.8706 43.2ZM96.5506 36.74V36.7C96.5506 36.0467 96.3973 35.5333 96.0906 35.16C95.7973 34.7733 95.384 34.58 94.8506 34.58C94.3306 34.58 93.9173 34.7733 93.6106 35.16C93.3173 35.5333 93.1706 36.0467 93.1706 36.7V36.74H96.5506ZM106.683 31.1C106.537 31.1 106.417 31.0533 106.323 30.96C106.23 30.8667 106.183 30.7467 106.183 30.6V28.8C106.183 28.6533 106.23 28.5333 106.323 28.44C106.417 28.3467 106.537 28.3 106.683 28.3H109.083C109.23 28.3 109.35 28.3467 109.443 28.44C109.537 28.5333 109.583 28.6533 109.583 28.8V30.6C109.583 30.7467 109.537 30.8667 109.443 30.96C109.35 31.0533 109.23 31.1 109.083 31.1H106.683ZM106.703 43C106.557 43 106.437 42.9533 106.343 42.86C106.25 42.7667 106.203 42.6467 106.203 42.5V33.1C106.203 32.9533 106.25 32.8333 106.343 32.74C106.437 32.6467 106.557 32.6 106.703 32.6H109.063C109.21 32.6 109.33 32.6467 109.423 32.74C109.517 32.8333 109.563 32.9533 109.563 33.1V42.5C109.563 42.6333 109.517 42.7533 109.423 42.86C109.33 42.9533 109.21 43 109.063 43H106.703ZM112.426 43C112.279 43 112.159 42.9533 112.066 42.86C111.973 42.7667 111.926 42.6467 111.926 42.5V33.1C111.926 32.9533 111.973 32.8333 112.066 32.74C112.159 32.6467 112.279 32.6 112.426 32.6H114.726C114.873 32.6 114.993 32.6467 115.086 32.74C115.193 32.8333 115.246 32.9533 115.246 33.1V33.86C115.606 33.42 116.066 33.0667 116.626 32.8C117.199 32.5333 117.846 32.4 118.566 32.4C119.739 32.4 120.693 32.8 121.426 33.6C122.159 34.3867 122.526 35.4933 122.526 36.92V42.5C122.526 42.6333 122.479 42.7533 122.386 42.86C122.293 42.9533 122.173 43 122.026 43H119.506C119.373 43 119.253 42.9533 119.146 42.86C119.053 42.7533 119.006 42.6333 119.006 42.5V37.04C119.006 36.4133 118.853 35.9333 118.546 35.6C118.239 35.2533 117.799 35.08 117.226 35.08C116.666 35.08 116.226 35.2533 115.906 35.6C115.586 35.9333 115.426 36.4133 115.426 37.04V42.5C115.426 42.6333 115.379 42.7533 115.286 42.86C115.193 42.9533 115.073 43 114.926 43H112.426Z" fill="#6A4029"/>
</svg>
