<svg width="70" height="70" viewBox="0 0 70 70" fill="none" xmlns="http://www.w3.org/2000/svg">
<circle cx="35" cy="35" r="35" fill="#BABABA" fill-opacity="0.35"/>
<path d="M21.9388 22.14C21.9788 21.07 22.3288 20.245 22.9888 19.665C23.6488 19.085 24.5438 18.795 25.6738 18.795C26.4238 18.795 27.0638 18.925 27.5938 19.185C28.1338 19.445 28.5388 19.8 28.8088 20.25C29.0888 20.7 29.2288 21.205 29.2288 21.765C29.2288 22.425 29.0638 22.965 28.7338 23.385C28.4038 23.795 28.0188 24.075 27.5788 24.225V24.285C28.1488 24.475 28.5988 24.79 28.9288 25.23C29.2588 25.67 29.4238 26.235 29.4238 26.925C29.4238 27.545 29.2788 28.095 28.9888 28.575C28.7088 29.045 28.2938 29.415 27.7438 29.685C27.2038 29.955 26.5588 30.09 25.8088 30.09C24.6088 30.09 23.6488 29.795 22.9288 29.205C22.2188 28.615 21.8438 27.725 21.8038 26.535H24.2938C24.3038 26.975 24.4288 27.325 24.6688 27.585C24.9088 27.835 25.2588 27.96 25.7188 27.96C26.1088 27.96 26.4088 27.85 26.6188 27.63C26.8388 27.4 26.9488 27.1 26.9488 26.73C26.9488 26.25 26.7938 25.905 26.4838 25.695C26.1838 25.475 25.6988 25.365 25.0288 25.365H24.5488V23.28H25.0288C25.5388 23.28 25.9488 23.195 26.2588 23.025C26.5788 22.845 26.7388 22.53 26.7388 22.08C26.7388 21.72 26.6388 21.44 26.4388 21.24C26.2388 21.04 25.9638 20.94 25.6138 20.94C25.2338 20.94 24.9488 21.055 24.7588 21.285C24.5788 21.515 24.4738 21.8 24.4438 22.14H21.9388ZM30.9309 24.375C30.9309 22.655 31.2609 21.3 31.9209 20.31C32.5909 19.32 33.6659 18.825 35.1459 18.825C36.6259 18.825 37.6959 19.32 38.3559 20.31C39.0259 21.3 39.3609 22.655 39.3609 24.375C39.3609 26.115 39.0259 27.48 38.3559 28.47C37.6959 29.46 36.6259 29.955 35.1459 29.955C33.6659 29.955 32.5909 29.46 31.9209 28.47C31.2609 27.48 30.9309 26.115 30.9309 24.375ZM36.8409 24.375C36.8409 23.365 36.7309 22.59 36.5109 22.05C36.2909 21.5 35.8359 21.225 35.1459 21.225C34.4559 21.225 34.0009 21.5 33.7809 22.05C33.5609 22.59 33.4509 23.365 33.4509 24.375C33.4509 25.055 33.4909 25.62 33.5709 26.07C33.6509 26.51 33.8109 26.87 34.0509 27.15C34.3009 27.42 34.6659 27.555 35.1459 27.555C35.6259 27.555 35.9859 27.42 36.2259 27.15C36.4759 26.87 36.6409 26.51 36.7209 26.07C36.8009 25.62 36.8409 25.055 36.8409 24.375ZM40.716 24.375C40.716 22.655 41.046 21.3 41.706 20.31C42.376 19.32 43.451 18.825 44.931 18.825C46.411 18.825 47.481 19.32 48.141 20.31C48.811 21.3 49.146 22.655 49.146 24.375C49.146 26.115 48.811 27.48 48.141 28.47C47.481 29.46 46.411 29.955 44.931 29.955C43.451 29.955 42.376 29.46 41.706 28.47C41.046 27.48 40.716 26.115 40.716 24.375ZM46.626 24.375C46.626 23.365 46.516 22.59 46.296 22.05C46.076 21.5 45.621 21.225 44.931 21.225C44.241 21.225 43.786 21.5 43.566 22.05C43.346 22.59 43.236 23.365 43.236 24.375C43.236 25.055 43.276 25.62 43.356 26.07C43.436 26.51 43.596 26.87 43.836 27.15C44.086 27.42 44.451 27.555 44.931 27.555C45.411 27.555 45.771 27.42 46.011 27.15C46.261 26.87 46.426 26.51 46.506 26.07C46.586 25.62 46.626 25.055 46.626 24.375ZM31.3117 44.51C31.9017 44.51 32.4167 44.63 32.8567 44.87C33.3067 45.11 33.6517 45.425 33.8917 45.815V44.63H36.4567V52.985C36.4567 53.755 36.3017 54.45 35.9917 55.07C35.6917 55.7 35.2267 56.2 34.5967 56.57C33.9767 56.94 33.2017 57.125 32.2717 57.125C31.0317 57.125 30.0267 56.83 29.2567 56.24C28.4867 55.66 28.0467 54.87 27.9367 53.87H30.4717C30.5517 54.19 30.7417 54.44 31.0417 54.62C31.3417 54.81 31.7117 54.905 32.1517 54.905C32.6817 54.905 33.1017 54.75 33.4117 54.44C33.7317 54.14 33.8917 53.655 33.8917 52.985V51.8C33.6417 52.19 33.2967 52.51 32.8567 52.76C32.4167 53 31.9017 53.12 31.3117 53.12C30.6217 53.12 29.9967 52.945 29.4367 52.595C28.8767 52.235 28.4317 51.73 28.1017 51.08C27.7817 50.42 27.6217 49.66 27.6217 48.8C27.6217 47.94 27.7817 47.185 28.1017 46.535C28.4317 45.885 28.8767 45.385 29.4367 45.035C29.9967 44.685 30.6217 44.51 31.3117 44.51ZM33.8917 48.815C33.8917 48.175 33.7117 47.67 33.3517 47.3C33.0017 46.93 32.5717 46.745 32.0617 46.745C31.5517 46.745 31.1167 46.93 30.7567 47.3C30.4067 47.66 30.2317 48.16 30.2317 48.8C30.2317 49.44 30.4067 49.95 30.7567 50.33C31.1167 50.7 31.5517 50.885 32.0617 50.885C32.5717 50.885 33.0017 50.7 33.3517 50.33C33.7117 49.96 33.8917 49.455 33.8917 48.815ZM40.8773 46.025C41.1773 45.565 41.5523 45.205 42.0023 44.945C42.4523 44.675 42.9523 44.54 43.5023 44.54V47.255H42.7973C42.1573 47.255 41.6773 47.395 41.3573 47.675C41.0373 47.945 40.8773 48.425 40.8773 49.115V53H38.3123V44.63H40.8773V46.025Z" fill="#4F5665"/>
</svg>
