<svg width="70" height="70" viewBox="0 0 70 70" fill="none" xmlns="http://www.w3.org/2000/svg">
<circle cx="35" cy="35" r="35" fill="#BABABA" fill-opacity="0.35"/>
<path d="M21.0298 27.945C21.3698 27.675 21.5248 27.55 21.4948 27.57C22.4748 26.76 23.2448 26.095 23.8048 25.575C24.3748 25.055 24.8548 24.51 25.2448 23.94C25.6348 23.37 25.8298 22.815 25.8298 22.275C25.8298 21.865 25.7348 21.545 25.5448 21.315C25.3548 21.085 25.0698 20.97 24.6898 20.97C24.3098 20.97 24.0098 21.115 23.7898 21.405C23.5798 21.685 23.4748 22.085 23.4748 22.605H20.9998C21.0198 21.755 21.1998 21.045 21.5398 20.475C21.8898 19.905 22.3448 19.485 22.9048 19.215C23.4748 18.945 24.1048 18.81 24.7948 18.81C25.9848 18.81 26.8798 19.115 27.4798 19.725C28.0898 20.335 28.3948 21.13 28.3948 22.11C28.3948 23.18 28.0298 24.175 27.2998 25.095C26.5698 26.005 25.6398 26.895 24.5098 27.765H28.5598V29.85H21.0298V27.945ZM37.3992 21.285H32.7192V23.355C32.9192 23.135 33.1992 22.955 33.5592 22.815C33.9192 22.675 34.3092 22.605 34.7292 22.605C35.4792 22.605 36.0992 22.775 36.5892 23.115C37.0892 23.455 37.4542 23.895 37.6842 24.435C37.9142 24.975 38.0292 25.56 38.0292 26.19C38.0292 27.36 37.6992 28.29 37.0392 28.98C36.3792 29.66 35.4492 30 34.2492 30C33.4492 30 32.7542 29.865 32.1642 29.595C31.5742 29.315 31.1192 28.93 30.7992 28.44C30.4792 27.95 30.3042 27.385 30.2742 26.745H32.7792C32.8392 27.055 32.9842 27.315 33.2142 27.525C33.4442 27.725 33.7592 27.825 34.1592 27.825C34.6292 27.825 34.9792 27.675 35.2092 27.375C35.4392 27.075 35.5542 26.675 35.5542 26.175C35.5542 25.685 35.4342 25.31 35.1942 25.05C34.9542 24.79 34.6042 24.66 34.1442 24.66C33.8042 24.66 33.5242 24.745 33.3042 24.915C33.0842 25.075 32.9392 25.29 32.8692 25.56H30.3942V19.035H37.3992V21.285ZM39.445 24.375C39.445 22.655 39.775 21.3 40.435 20.31C41.105 19.32 42.18 18.825 43.66 18.825C45.14 18.825 46.21 19.32 46.87 20.31C47.54 21.3 47.875 22.655 47.875 24.375C47.875 26.115 47.54 27.48 46.87 28.47C46.21 29.46 45.14 29.955 43.66 29.955C42.18 29.955 41.105 29.46 40.435 28.47C39.775 27.48 39.445 26.115 39.445 24.375ZM45.355 24.375C45.355 23.365 45.245 22.59 45.025 22.05C44.805 21.5 44.35 21.225 43.66 21.225C42.97 21.225 42.515 21.5 42.295 22.05C42.075 22.59 41.965 23.365 41.965 24.375C41.965 25.055 42.005 25.62 42.085 26.07C42.165 26.51 42.325 26.87 42.565 27.15C42.815 27.42 43.18 27.555 43.66 27.555C44.14 27.555 44.5 27.42 44.74 27.15C44.99 26.87 45.155 26.51 45.235 26.07C45.315 25.62 45.355 25.055 45.355 24.375ZM30.3117 44.51C30.9017 44.51 31.4167 44.63 31.8567 44.87C32.3067 45.11 32.6517 45.425 32.8917 45.815V44.63H35.4567V52.985C35.4567 53.755 35.3017 54.45 34.9917 55.07C34.6917 55.7 34.2267 56.2 33.5967 56.57C32.9767 56.94 32.2017 57.125 31.2717 57.125C30.0317 57.125 29.0267 56.83 28.2567 56.24C27.4867 55.66 27.0467 54.87 26.9367 53.87H29.4717C29.5517 54.19 29.7417 54.44 30.0417 54.62C30.3417 54.81 30.7117 54.905 31.1517 54.905C31.6817 54.905 32.1017 54.75 32.4117 54.44C32.7317 54.14 32.8917 53.655 32.8917 52.985V51.8C32.6417 52.19 32.2967 52.51 31.8567 52.76C31.4167 53 30.9017 53.12 30.3117 53.12C29.6217 53.12 28.9967 52.945 28.4367 52.595C27.8767 52.235 27.4317 51.73 27.1017 51.08C26.7817 50.42 26.6217 49.66 26.6217 48.8C26.6217 47.94 26.7817 47.185 27.1017 46.535C27.4317 45.885 27.8767 45.385 28.4367 45.035C28.9967 44.685 29.6217 44.51 30.3117 44.51ZM32.8917 48.815C32.8917 48.175 32.7117 47.67 32.3517 47.3C32.0017 46.93 31.5717 46.745 31.0617 46.745C30.5517 46.745 30.1167 46.93 29.7567 47.3C29.4067 47.66 29.2317 48.16 29.2317 48.8C29.2317 49.44 29.4067 49.95 29.7567 50.33C30.1167 50.7 30.5517 50.885 31.0617 50.885C31.5717 50.885 32.0017 50.7 32.3517 50.33C32.7117 49.96 32.8917 49.455 32.8917 48.815ZM39.8773 46.025C40.1773 45.565 40.5523 45.205 41.0023 44.945C41.4523 44.675 41.9523 44.54 42.5023 44.54V47.255H41.7973C41.1573 47.255 40.6773 47.395 40.3573 47.675C40.0373 47.945 39.8773 48.425 39.8773 49.115V53H37.3123V44.63H39.8773V46.025Z" fill="#4F5665"/>
</svg>
