<svg width="70" height="70" viewBox="0 0 70 70" fill="none" xmlns="http://www.w3.org/2000/svg">
<circle cx="35" cy="35" r="35" fill="#BABABA" fill-opacity="0.35"/>
<path d="M28.7219 21.285H24.0419V23.355C24.2419 23.135 24.5219 22.955 24.8819 22.815C25.2419 22.675 25.6319 22.605 26.0519 22.605C26.8019 22.605 27.4219 22.775 27.9119 23.115C28.4119 23.455 28.7769 23.895 29.0069 24.435C29.2369 24.975 29.3519 25.56 29.3519 26.19C29.3519 27.36 29.0219 28.29 28.3619 28.98C27.7019 29.66 26.7719 30 25.5719 30C24.7719 30 24.0769 29.865 23.4869 29.595C22.8969 29.315 22.4419 28.93 22.1219 28.44C21.8019 27.95 21.6269 27.385 21.5969 26.745H24.1019C24.1619 27.055 24.3069 27.315 24.5369 27.525C24.7669 27.725 25.0819 27.825 25.4819 27.825C25.9519 27.825 26.3019 27.675 26.5319 27.375C26.7619 27.075 26.8769 26.675 26.8769 26.175C26.8769 25.685 26.7569 25.31 26.5169 25.05C26.2769 24.79 25.9269 24.66 25.4669 24.66C25.1269 24.66 24.8469 24.745 24.6269 24.915C24.4069 25.075 24.2619 25.29 24.1919 25.56H21.7169V19.035H28.7219V21.285ZM30.7678 24.375C30.7678 22.655 31.0978 21.3 31.7578 20.31C32.4278 19.32 33.5028 18.825 34.9828 18.825C36.4628 18.825 37.5328 19.32 38.1928 20.31C38.8628 21.3 39.1978 22.655 39.1978 24.375C39.1978 26.115 38.8628 27.48 38.1928 28.47C37.5328 29.46 36.4628 29.955 34.9828 29.955C33.5028 29.955 32.4278 29.46 31.7578 28.47C31.0978 27.48 30.7678 26.115 30.7678 24.375ZM36.6778 24.375C36.6778 23.365 36.5678 22.59 36.3478 22.05C36.1278 21.5 35.6728 21.225 34.9828 21.225C34.2928 21.225 33.8378 21.5 33.6178 22.05C33.3978 22.59 33.2878 23.365 33.2878 24.375C33.2878 25.055 33.3278 25.62 33.4078 26.07C33.4878 26.51 33.6478 26.87 33.8878 27.15C34.1378 27.42 34.5028 27.555 34.9828 27.555C35.4628 27.555 35.8228 27.42 36.0628 27.15C36.3128 26.87 36.4778 26.51 36.5578 26.07C36.6378 25.62 36.6778 25.055 36.6778 24.375ZM40.5529 24.375C40.5529 22.655 40.8829 21.3 41.5429 20.31C42.2129 19.32 43.2879 18.825 44.7679 18.825C46.2479 18.825 47.3179 19.32 47.9779 20.31C48.6479 21.3 48.9829 22.655 48.9829 24.375C48.9829 26.115 48.6479 27.48 47.9779 28.47C47.3179 29.46 46.2479 29.955 44.7679 29.955C43.2879 29.955 42.2129 29.46 41.5429 28.47C40.8829 27.48 40.5529 26.115 40.5529 24.375ZM46.4629 24.375C46.4629 23.365 46.3529 22.59 46.1329 22.05C45.9129 21.5 45.4579 21.225 44.7679 21.225C44.0779 21.225 43.6229 21.5 43.4029 22.05C43.1829 22.59 43.0729 23.365 43.0729 24.375C43.0729 25.055 43.1129 25.62 43.1929 26.07C43.2729 26.51 43.4329 26.87 43.6729 27.15C43.9229 27.42 44.2879 27.555 44.7679 27.555C45.2479 27.555 45.6079 27.42 45.8479 27.15C46.0979 26.87 46.2629 26.51 46.3429 26.07C46.4229 25.62 46.4629 25.055 46.4629 24.375ZM30.8117 44.51C31.4017 44.51 31.9167 44.63 32.3567 44.87C32.8067 45.11 33.1517 45.425 33.3917 45.815V44.63H35.9567V52.985C35.9567 53.755 35.8017 54.45 35.4917 55.07C35.1917 55.7 34.7267 56.2 34.0967 56.57C33.4767 56.94 32.7017 57.125 31.7717 57.125C30.5317 57.125 29.5267 56.83 28.7567 56.24C27.9867 55.66 27.5467 54.87 27.4367 53.87H29.9717C30.0517 54.19 30.2417 54.44 30.5417 54.62C30.8417 54.81 31.2117 54.905 31.6517 54.905C32.1817 54.905 32.6017 54.75 32.9117 54.44C33.2317 54.14 33.3917 53.655 33.3917 52.985V51.8C33.1417 52.19 32.7967 52.51 32.3567 52.76C31.9167 53 31.4017 53.12 30.8117 53.12C30.1217 53.12 29.4967 52.945 28.9367 52.595C28.3767 52.235 27.9317 51.73 27.6017 51.08C27.2817 50.42 27.1217 49.66 27.1217 48.8C27.1217 47.94 27.2817 47.185 27.6017 46.535C27.9317 45.885 28.3767 45.385 28.9367 45.035C29.4967 44.685 30.1217 44.51 30.8117 44.51ZM33.3917 48.815C33.3917 48.175 33.2117 47.67 32.8517 47.3C32.5017 46.93 32.0717 46.745 31.5617 46.745C31.0517 46.745 30.6167 46.93 30.2567 47.3C29.9067 47.66 29.7317 48.16 29.7317 48.8C29.7317 49.44 29.9067 49.95 30.2567 50.33C30.6167 50.7 31.0517 50.885 31.5617 50.885C32.0717 50.885 32.5017 50.7 32.8517 50.33C33.2117 49.96 33.3917 49.455 33.3917 48.815ZM40.3773 46.025C40.6773 45.565 41.0523 45.205 41.5023 44.945C41.9523 44.675 42.4523 44.54 43.0023 44.54V47.255H42.2973C41.6573 47.255 41.1773 47.395 40.8573 47.675C40.5373 47.945 40.3773 48.425 40.3773 49.115V53H37.8123V44.63H40.3773V46.025Z" fill="#4F5665"/>
</svg>
