<svg width="180" height="72" viewBox="0 0 180 72" fill="none" xmlns="http://www.w3.org/2000/svg">
<rect width="180" height="72" rx="20" fill="#BABABA" fill-opacity="0.35"/>
<path d="M43.98 43C43.8467 43 43.7267 42.9533 43.62 42.86C43.5267 42.7533 43.48 42.6333 43.48 42.5V32.14H39.92C39.7867 32.14 39.6667 32.0933 39.56 32C39.4667 31.8933 39.42 31.7733 39.42 31.64V29.5C39.42 29.3533 39.4667 29.2333 39.56 29.14C39.6667 29.0467 39.7867 29 39.92 29H50.68C50.8267 29 50.9467 29.0467 51.04 29.14C51.1333 29.2333 51.18 29.3533 51.18 29.5V31.64C51.18 31.7867 51.1333 31.9067 51.04 32C50.9467 32.0933 50.8267 32.14 50.68 32.14H47.12V42.5C47.12 42.6333 47.0733 42.7533 46.98 42.86C46.8867 42.9533 46.7667 43 46.62 43H43.98ZM54.1398 43.2C53.4332 43.2 52.7865 43.0667 52.1998 42.8C51.6265 42.52 51.1732 42.1467 50.8398 41.68C50.5198 41.2 50.3598 40.6733 50.3598 40.1C50.3598 39.18 50.7332 38.44 51.4798 37.88C52.2398 37.32 53.2798 36.9333 54.5998 36.72L57.0998 36.34V36.06C57.0998 35.5533 56.9932 35.18 56.7798 34.94C56.5665 34.7 56.2065 34.58 55.6998 34.58C55.3932 34.58 55.1398 34.6333 54.9398 34.74C54.7398 34.8467 54.5332 34.9933 54.3198 35.18C54.1332 35.34 53.9932 35.4467 53.8998 35.5C53.8598 35.6067 53.7865 35.66 53.6798 35.66H51.4998C51.3665 35.66 51.2532 35.62 51.1598 35.54C51.0798 35.4467 51.0465 35.34 51.0598 35.22C51.0732 34.86 51.2465 34.46 51.5798 34.02C51.9265 33.58 52.4465 33.2 53.1398 32.88C53.8465 32.56 54.7132 32.4 55.7398 32.4C57.3798 32.4 58.5932 32.7667 59.3798 33.5C60.1665 34.22 60.5598 35.1933 60.5598 36.42V42.5C60.5598 42.6333 60.5132 42.7533 60.4198 42.86C60.3265 42.9533 60.2065 43 60.0598 43H57.7398C57.6065 43 57.4865 42.9533 57.3798 42.86C57.2865 42.7533 57.2398 42.6333 57.2398 42.5V41.8C56.9465 42.2133 56.5332 42.5533 55.9998 42.82C55.4798 43.0733 54.8598 43.2 54.1398 43.2ZM55.0798 40.92C55.6932 40.92 56.1865 40.72 56.5598 40.32C56.9465 39.92 57.1398 39.3333 57.1398 38.56V38.28L55.4398 38.58C54.2398 38.7933 53.6398 39.2133 53.6398 39.84C53.6398 40.1733 53.7798 40.44 54.0598 40.64C54.3398 40.8267 54.6798 40.92 55.0798 40.92ZM63.3167 43C63.1834 43 63.0634 42.9533 62.9567 42.86C62.8634 42.7533 62.8167 42.6333 62.8167 42.5V29.3C62.8167 29.1533 62.8634 29.0333 62.9567 28.94C63.0634 28.8467 63.1834 28.8 63.3167 28.8H65.6367C65.7834 28.8 65.9034 28.8467 65.9967 28.94C66.0901 29.0333 66.1367 29.1533 66.1367 29.3V36L68.9167 32.94C68.9434 32.9133 68.9901 32.8667 69.0567 32.8C69.1367 32.7333 69.2167 32.6867 69.2967 32.66C69.3767 32.62 69.4701 32.6 69.5767 32.6H72.2567C72.3767 32.6 72.4767 32.6467 72.5567 32.74C72.6501 32.82 72.6967 32.92 72.6967 33.04C72.6967 33.1867 72.6434 33.3 72.5367 33.38L68.9367 37.26L73.0367 42.24C73.1434 42.3467 73.1967 42.4467 73.1967 42.54C73.1967 42.6733 73.1501 42.7867 73.0567 42.88C72.9767 42.96 72.8701 43 72.7367 43H69.9967C69.8234 43 69.6901 42.9733 69.5967 42.92C69.5167 42.8667 69.4167 42.78 69.2967 42.66L66.1367 38.86V42.5C66.1367 42.6333 66.0901 42.7533 65.9967 42.86C65.9034 42.9533 65.7834 43 65.6367 43H63.3167ZM78.8472 43.2C77.2472 43.2 75.9872 42.7667 75.0672 41.9C74.1472 41.0333 73.6672 39.7733 73.6272 38.12V37.42C73.6805 35.8467 74.1672 34.62 75.0872 33.74C76.0205 32.8467 77.2672 32.4 78.8272 32.4C79.9605 32.4 80.9139 32.6333 81.6872 33.1C82.4739 33.5533 83.0605 34.18 83.4472 34.98C83.8472 35.78 84.0472 36.7 84.0472 37.74V38.22C84.0472 38.3533 84.0005 38.4733 83.9072 38.58C83.8139 38.6733 83.6939 38.72 83.5472 38.72H77.1472V38.86C77.1739 39.4867 77.3272 39.9933 77.6072 40.38C77.8872 40.7667 78.2939 40.96 78.8272 40.96C79.1605 40.96 79.4339 40.8933 79.6472 40.76C79.8605 40.6133 80.0539 40.44 80.2272 40.24C80.3472 40.0933 80.4405 40.0067 80.5072 39.98C80.5872 39.94 80.7072 39.92 80.8672 39.92H83.3472C83.4672 39.92 83.5672 39.96 83.6472 40.04C83.7405 40.1067 83.7872 40.2 83.7872 40.32C83.7872 40.6667 83.5872 41.0667 83.1872 41.52C82.8005 41.9733 82.2339 42.3667 81.4872 42.7C80.7405 43.0333 79.8605 43.2 78.8472 43.2ZM80.5272 36.74V36.7C80.5272 36.0467 80.3739 35.5333 80.0672 35.16C79.7739 34.7733 79.3605 34.58 78.8272 34.58C78.3072 34.58 77.8939 34.7733 77.5872 35.16C77.2939 35.5333 77.1472 36.0467 77.1472 36.7V36.74H80.5272ZM93.3 43.2C92.5933 43.2 91.9467 43.0667 91.36 42.8C90.7867 42.52 90.3333 42.1467 90 41.68C89.68 41.2 89.52 40.6733 89.52 40.1C89.52 39.18 89.8933 38.44 90.64 37.88C91.4 37.32 92.44 36.9333 93.76 36.72L96.26 36.34V36.06C96.26 35.5533 96.1533 35.18 95.94 34.94C95.7267 34.7 95.3667 34.58 94.86 34.58C94.5533 34.58 94.3 34.6333 94.1 34.74C93.9 34.8467 93.6933 34.9933 93.48 35.18C93.2933 35.34 93.1533 35.4467 93.06 35.5C93.02 35.6067 92.9467 35.66 92.84 35.66H90.66C90.5267 35.66 90.4133 35.62 90.32 35.54C90.24 35.4467 90.2067 35.34 90.22 35.22C90.2333 34.86 90.4067 34.46 90.74 34.02C91.0867 33.58 91.6067 33.2 92.3 32.88C93.0067 32.56 93.8733 32.4 94.9 32.4C96.54 32.4 97.7533 32.7667 98.54 33.5C99.3267 34.22 99.72 35.1933 99.72 36.42V42.5C99.72 42.6333 99.6733 42.7533 99.58 42.86C99.4867 42.9533 99.3667 43 99.22 43H96.9C96.7667 43 96.6467 42.9533 96.54 42.86C96.4467 42.7533 96.4 42.6333 96.4 42.5V41.8C96.1067 42.2133 95.6933 42.5533 95.16 42.82C94.64 43.0733 94.02 43.2 93.3 43.2ZM94.24 40.92C94.8533 40.92 95.3467 40.72 95.72 40.32C96.1067 39.92 96.3 39.3333 96.3 38.56V38.28L94.6 38.58C93.4 38.7933 92.8 39.2133 92.8 39.84C92.8 40.1733 92.94 40.44 93.22 40.64C93.5 40.8267 93.84 40.92 94.24 40.92ZM104.721 43C104.534 43 104.387 42.96 104.281 42.88C104.187 42.7867 104.114 42.66 104.061 42.5L101.181 33.24L101.141 33.04C101.141 32.92 101.187 32.82 101.281 32.74C101.374 32.6467 101.481 32.6 101.601 32.6H103.661C103.821 32.6 103.954 32.6467 104.061 32.74C104.167 32.82 104.234 32.9133 104.261 33.02L105.941 38.74L107.741 33.04C107.767 32.9333 107.834 32.8333 107.941 32.74C108.047 32.6467 108.187 32.6 108.361 32.6H109.681C109.854 32.6 109.994 32.6467 110.101 32.74C110.207 32.8333 110.274 32.9333 110.301 33.04L112.101 38.74L113.781 33.02C113.807 32.9133 113.874 32.82 113.981 32.74C114.087 32.6467 114.221 32.6 114.381 32.6H116.441C116.561 32.6 116.667 32.6467 116.761 32.74C116.854 32.82 116.901 32.92 116.901 33.04L116.861 33.24L113.981 42.5C113.927 42.66 113.847 42.7867 113.741 42.88C113.647 42.96 113.507 43 113.321 43H111.521C111.174 43 110.954 42.8333 110.861 42.5L109.021 37.02L107.181 42.5C107.087 42.8333 106.867 43 106.521 43H104.721ZM121.347 43.2C120.64 43.2 119.994 43.0667 119.407 42.8C118.834 42.52 118.38 42.1467 118.047 41.68C117.727 41.2 117.567 40.6733 117.567 40.1C117.567 39.18 117.94 38.44 118.687 37.88C119.447 37.32 120.487 36.9333 121.807 36.72L124.307 36.34V36.06C124.307 35.5533 124.2 35.18 123.987 34.94C123.774 34.7 123.414 34.58 122.907 34.58C122.6 34.58 122.347 34.6333 122.147 34.74C121.947 34.8467 121.74 34.9933 121.527 35.18C121.34 35.34 121.2 35.4467 121.107 35.5C121.067 35.6067 120.994 35.66 120.887 35.66H118.707C118.574 35.66 118.46 35.62 118.367 35.54C118.287 35.4467 118.254 35.34 118.267 35.22C118.28 34.86 118.454 34.46 118.787 34.02C119.134 33.58 119.654 33.2 120.347 32.88C121.054 32.56 121.92 32.4 122.947 32.4C124.587 32.4 125.8 32.7667 126.587 33.5C127.374 34.22 127.767 35.1933 127.767 36.42V42.5C127.767 42.6333 127.72 42.7533 127.627 42.86C127.534 42.9533 127.414 43 127.267 43H124.947C124.814 43 124.694 42.9533 124.587 42.86C124.494 42.7533 124.447 42.6333 124.447 42.5V41.8C124.154 42.2133 123.74 42.5533 123.207 42.82C122.687 43.0733 122.067 43.2 121.347 43.2ZM122.287 40.92C122.9 40.92 123.394 40.72 123.767 40.32C124.154 39.92 124.347 39.3333 124.347 38.56V38.28L122.647 38.58C121.447 38.7933 120.847 39.2133 120.847 39.84C120.847 40.1733 120.987 40.44 121.267 40.64C121.547 40.8267 121.887 40.92 122.287 40.92ZM131.632 46.8C131.512 46.8 131.412 46.76 131.332 46.68C131.252 46.6 131.212 46.5 131.212 46.38C131.212 46.2867 131.232 46.2 131.272 46.12L132.832 42.36L128.992 33.28C128.952 33.1733 128.932 33.0933 128.932 33.04C128.958 32.92 129.012 32.82 129.092 32.74C129.172 32.6467 129.272 32.6 129.392 32.6H131.672C131.952 32.6 132.145 32.74 132.252 33.02L134.532 38.84L136.872 33.02C137.005 32.74 137.205 32.6 137.472 32.6H139.712C139.832 32.6 139.932 32.6467 140.012 32.74C140.105 32.82 140.152 32.9133 140.152 33.02C140.152 33.0733 140.132 33.16 140.092 33.28L134.432 46.38C134.325 46.66 134.125 46.8 133.832 46.8H131.632Z" fill="#4F5665"/>
</svg>
